<svg width="199" height="49" viewBox="0 0 199 49" fill="none" xmlns="http://www.w3.org/2000/svg">
<path d="M17.875 28.0312H6.1875L6.125 21.5938H15.9375C17.6667 21.5938 19.0833 21.375 20.1875 20.9375C21.2917 20.4792 22.1146 19.8229 22.6562 18.9688C23.2188 18.0938 23.5 17.0312 23.5 15.7812C23.5 14.3646 23.2292 13.2188 22.6875 12.3438C22.1667 11.4688 21.3438 10.8333 20.2188 10.4375C19.1146 10.0417 17.6875 9.84375 15.9375 9.84375H9.4375V48H0.0625V2.5H15.9375C18.5833 2.5 20.9479 2.75 23.0312 3.25C25.1354 3.75 26.9167 4.51042 28.375 5.53125C29.8333 6.55208 30.9479 7.84375 31.7188 9.40625C32.4896 10.9479 32.875 12.7812 32.875 14.9062C32.875 16.7812 32.4479 18.5104 31.5938 20.0938C30.7604 21.6771 29.4375 22.9688 27.625 23.9688C25.8333 24.9688 23.4896 25.5208 20.5938 25.625L17.875 28.0312ZM17.4688 48H3.625L7.28125 40.6875H17.4688C19.1146 40.6875 20.4583 40.4271 21.5 39.9062C22.5417 39.3646 23.3125 38.6354 23.8125 37.7188C24.3125 36.8021 24.5625 35.75 24.5625 34.5625C24.5625 33.2292 24.3333 32.0729 23.875 31.0938C23.4375 30.1146 22.7292 29.3646 21.75 28.8438C20.7708 28.3021 19.4792 28.0312 17.875 28.0312H8.84375L8.90625 21.5938H20.1562L22.3125 24.125C25.0833 24.0833 27.3125 24.5729 29 25.5938C30.7083 26.5938 31.9479 27.8958 32.7188 29.5C33.5104 31.1042 33.9062 32.8229 33.9062 34.6562C33.9062 37.5729 33.2708 40.0312 32 42.0312C30.7292 44.0104 28.8646 45.5 26.4062 46.5C23.9688 47.5 20.9896 48 17.4688 48ZM49.875 14.1875V48H40.8438V14.1875H49.875ZM40.2812 5.375C40.2812 4.0625 40.7396 2.97917 41.6562 2.125C42.5729 1.27083 43.8021 0.84375 45.3438 0.84375C46.8646 0.84375 48.0833 1.27083 49 2.125C49.9375 2.97917 50.4062 4.0625 50.4062 5.375C50.4062 6.6875 49.9375 7.77083 49 8.625C48.0833 9.47917 46.8646 9.90625 45.3438 9.90625C43.8021 9.90625 42.5729 9.47917 41.6562 8.625C40.7396 7.77083 40.2812 6.6875 40.2812 5.375ZM55.875 31.4375V30.7812C55.875 28.3021 56.2292 26.0208 56.9375 23.9375C57.6458 21.8333 58.6771 20.0104 60.0312 18.4688C61.3854 16.9271 63.0521 15.7292 65.0312 14.875C67.0104 14 69.2812 13.5625 71.8438 13.5625C74.4062 13.5625 76.6875 14 78.6875 14.875C80.6875 15.7292 82.3646 16.9271 83.7188 18.4688C85.0938 20.0104 86.1354 21.8333 86.8438 23.9375C87.5521 26.0208 87.9062 28.3021 87.9062 30.7812V31.4375C87.9062 33.8958 87.5521 36.1771 86.8438 38.2812C86.1354 40.3646 85.0938 42.1875 83.7188 43.75C82.3646 45.2917 80.6979 46.4896 78.7188 47.3438C76.7396 48.1979 74.4688 48.625 71.9062 48.625C69.3438 48.625 67.0625 48.1979 65.0625 47.3438C63.0833 46.4896 61.4062 45.2917 60.0312 43.75C58.6771 42.1875 57.6458 40.3646 56.9375 38.2812C56.2292 36.1771 55.875 33.8958 55.875 31.4375ZM64.875 30.7812V31.4375C64.875 32.8542 65 34.1771 65.25 35.4062C65.5 36.6354 65.8958 37.7188 66.4375 38.6562C67 39.5729 67.7292 40.2917 68.625 40.8125C69.5208 41.3333 70.6146 41.5938 71.9062 41.5938C73.1562 41.5938 74.2292 41.3333 75.125 40.8125C76.0208 40.2917 76.7396 39.5729 77.2812 38.6562C77.8229 37.7188 78.2188 36.6354 78.4688 35.4062C78.7396 34.1771 78.875 32.8542 78.875 31.4375V30.7812C78.875 29.4062 78.7396 28.1146 78.4688 26.9062C78.2188 25.6771 77.8125 24.5938 77.25 23.6562C76.7083 22.6979 75.9896 21.9479 75.0938 21.4062C74.1979 20.8646 73.1146 20.5938 71.8438 20.5938C70.5729 20.5938 69.4896 20.8646 68.5938 21.4062C67.7188 21.9479 67 22.6979 66.4375 23.6562C65.8958 24.5938 65.5 25.6771 65.25 26.9062C65 28.1146 64.875 29.4062 64.875 30.7812ZM107.969 48H98.0625L98.125 40.6875H107.969C110.427 40.6875 112.5 40.1354 114.188 39.0312C115.875 37.9062 117.146 36.2708 118 34.125C118.875 31.9792 119.312 29.3854 119.312 26.3438V24.125C119.312 21.7917 119.062 19.7396 118.562 17.9688C118.083 16.1979 117.365 14.7083 116.406 13.5C115.448 12.2917 114.271 11.3854 112.875 10.7812C111.479 10.1562 109.875 9.84375 108.062 9.84375H97.875V2.5H108.062C111.104 2.5 113.885 3.02083 116.406 4.0625C118.948 5.08333 121.146 6.55208 123 8.46875C124.854 10.3854 126.281 12.6771 127.281 15.3438C128.302 17.9896 128.812 20.9375 128.812 24.1875V26.3438C128.812 29.5729 128.302 32.5208 127.281 35.1875C126.281 37.8542 124.854 40.1458 123 42.0625C121.167 43.9583 118.969 45.4271 116.406 46.4688C113.865 47.4896 111.052 48 107.969 48ZM103.375 2.5V48H94V2.5H103.375ZM150.625 48.625C148 48.625 145.646 48.2083 143.562 47.375C141.479 46.5208 139.708 45.3438 138.25 43.8438C136.812 42.3438 135.708 40.6042 134.938 38.625C134.167 36.625 133.781 34.5 133.781 32.25V31C133.781 28.4375 134.146 26.0938 134.875 23.9688C135.604 21.8438 136.646 20 138 18.4375C139.375 16.875 141.042 15.6771 143 14.8438C144.958 13.9896 147.167 13.5625 149.625 13.5625C152.021 13.5625 154.146 13.9583 156 14.75C157.854 15.5417 159.406 16.6667 160.656 18.125C161.927 19.5833 162.885 21.3333 163.531 23.375C164.177 25.3958 164.5 27.6458 164.5 30.125V33.875H137.625V27.875H155.656V27.1875C155.656 25.9375 155.427 24.8229 154.969 23.8438C154.531 22.8438 153.865 22.0521 152.969 21.4688C152.073 20.8854 150.927 20.5938 149.531 20.5938C148.344 20.5938 147.323 20.8542 146.469 21.375C145.615 21.8958 144.917 22.625 144.375 23.5625C143.854 24.5 143.458 25.6042 143.188 26.875C142.938 28.125 142.812 29.5 142.812 31V32.25C142.812 33.6042 143 34.8542 143.375 36C143.771 37.1458 144.323 38.1354 145.031 38.9688C145.76 39.8021 146.635 40.4479 147.656 40.9062C148.698 41.3646 149.875 41.5938 151.188 41.5938C152.812 41.5938 154.323 41.2812 155.719 40.6562C157.135 40.0104 158.354 39.0417 159.375 37.75L163.75 42.5C163.042 43.5208 162.073 44.5 160.844 45.4375C159.635 46.375 158.177 47.1458 156.469 47.75C154.76 48.3333 152.812 48.625 150.625 48.625ZM176.875 14.1875L182.469 24.4688L188.219 14.1875H197.812L188.25 30.7188L198.25 48H188.625L182.531 37.125L176.438 48H166.812L176.812 30.7188L167.25 14.1875H176.875Z" fill="#5DB94F"/>
</svg>
